<svg xmlns="http://www.w3.org/2000/svg" width="721" height="821" viewBox="0 0 721 821">
  <metadata><?xpacket begin="﻿" id="W5M0MpCehiHzreSzNTczkc9d"?>
<x:xmpmeta xmlns:x="adobe:ns:meta/" x:xmptk="Adobe XMP Core 5.6-c138 79.159824, 2016/09/14-01:09:01        ">
   <rdf:RDF xmlns:rdf="http://www.w3.org/1999/02/22-rdf-syntax-ns#">
      <rdf:Description rdf:about=""/>
   </rdf:RDF>
</x:xmpmeta>
                                                                                                    
                                                                                                    
                                                                                                    
                                                                                                    
                                                                                                    
                                                                                                    
                                                                                                    
                                                                                                    
                                                                                                    
                                                                                                    
                                                                                                    
                                                                                                    
                                                                                                    
                                                                                                    
                                                                                                    
                                                                                                    
                                                                                                    
                                                                                                    
                                                                                                    
                                                                                                    
                           
<?xpacket end="w"?></metadata>
<defs>
    <style>
      .cls-1 {
        fill: #343a41;
      }

      .cls-1, .cls-10, .cls-11, .cls-12, .cls-2, .cls-3, .cls-4, .cls-5, .cls-6, .cls-7, .cls-8, .cls-9 {
        fill-rule: evenodd;
      }

      .cls-1, .cls-9 {
        opacity: 0.4;
      }

      .cls-2 {
        fill: #32383e;
        opacity: 0.7;
      }

      .cls-3 {
        fill: #333f4b;
      }

      .cls-4 {
        fill: #467fb4;
      }

      .cls-4, .cls-7 {
        opacity: 0.1;
      }

      .cls-10, .cls-5, .cls-8, .cls-9 {
        fill: #324a60;
      }

      .cls-6 {
        fill: #385773;
      }

      .cls-7 {
        fill: #fff;
      }

      .cls-8 {
        opacity: 0.2;
      }

      .cls-10 {
        opacity: 0.5;
      }

      .cls-11 {
        fill: #254460;
      }

      .cls-12 {
        fill: #193043;
        opacity: 0.3;
      }
    </style>
  </defs>
  <path id="Shape_2_copy_12" data-name="Shape 2 copy 12" class="cls-1" d="M18.374,191.8L342.133,4.92a36.742,36.742,0,0,1,36.734,0L702.626,191.8a36.731,36.731,0,0,1,18.367,31.807V597.38a36.721,36.721,0,0,1-18.367,31.807L378.867,816.073a36.738,36.738,0,0,1-36.734,0L18.374,629.187A36.721,36.721,0,0,1,.007,597.38V223.61A36.73,36.73,0,0,1,18.374,191.8Z"/>
  <path class="cls-2" d="M47.719,210.561L343.708,39.707a33.591,33.591,0,0,1,33.584,0L673.281,210.561a33.581,33.581,0,0,1,16.792,29.079V581.351a33.573,33.573,0,0,1-16.792,29.079L377.292,781.287a33.6,33.6,0,0,1-33.584,0L47.719,610.43a33.571,33.571,0,0,1-16.792-29.079V239.64A33.58,33.58,0,0,1,47.719,210.561Z"/>
  <path id="Shape_2_copy" data-name="Shape 2 copy" class="cls-3" d="M75.722,228.461L345.212,72.9a30.583,30.583,0,0,1,30.576,0l269.49,155.558a30.572,30.572,0,0,1,15.289,26.476V566.055a30.565,30.565,0,0,1-15.289,26.476l-269.49,155.56a30.58,30.58,0,0,1-30.576,0L75.722,592.531a30.566,30.566,0,0,1-15.288-26.476V254.937A30.573,30.573,0,0,1,75.722,228.461Z"/>
  <path id="Shape_2_copy_2" data-name="Shape 2 copy 2" class="cls-4" d="M103.3,246.091L346.692,105.6a27.621,27.621,0,0,1,27.616,0L617.7,246.091A27.611,27.611,0,0,1,631.507,270V550.99A27.606,27.606,0,0,1,617.7,574.9L374.308,715.4a27.621,27.621,0,0,1-27.616,0L103.3,574.9A27.605,27.605,0,0,1,89.493,550.99V270A27.611,27.611,0,0,1,103.3,246.091Z"/>
  <path id="Shape_2_copy_3" data-name="Shape 2 copy 3" class="cls-5" d="M129.283,262.7l218.8-126.3a24.83,24.83,0,0,1,24.826,0l218.8,126.3a24.825,24.825,0,0,1,12.413,21.5V536.8a24.818,24.818,0,0,1-12.413,21.5l-218.8,126.3a24.83,24.83,0,0,1-24.826,0l-218.8-126.3a24.818,24.818,0,0,1-12.413-21.5V284.2A24.825,24.825,0,0,1,129.283,262.7Z"/>
  <path id="Shape_2_copy_4" data-name="Shape 2 copy 4" class="cls-6" d="M156.429,280.055L349.545,168.584a21.914,21.914,0,0,1,21.91,0L564.571,280.055a21.911,21.911,0,0,1,10.955,18.973V521.974a21.9,21.9,0,0,1-10.955,18.972L371.455,652.419a21.909,21.909,0,0,1-21.91,0L156.429,540.946a21.9,21.9,0,0,1-10.955-18.972V299.028A21.911,21.911,0,0,1,156.429,280.055Z"/>
  <path id="Shape_2_copy_5" data-name="Shape 2 copy 5" class="cls-7" d="M184.421,297.948l166.626-96.182a18.912,18.912,0,0,1,18.906,0l166.626,96.182a18.9,18.9,0,0,1,9.453,16.37V506.683a18.9,18.9,0,0,1-9.453,16.37L369.953,619.237a18.912,18.912,0,0,1-18.906,0L184.421,523.053a18.9,18.9,0,0,1-9.453-16.37V314.318A18.9,18.9,0,0,1,184.421,297.948Z"/>
  <path id="Shape_2_copy_6" data-name="Shape 2 copy 6" class="cls-8" d="M209.72,314.12l142.685-82.363a16.2,16.2,0,0,1,16.19,0L511.28,314.12a16.184,16.184,0,0,1,8.1,14.017V492.864a16.184,16.184,0,0,1-8.1,14.018L368.6,589.245a16.19,16.19,0,0,1-16.19,0L209.72,506.882a16.184,16.184,0,0,1-8.095-14.018V328.137A16.184,16.184,0,0,1,209.72,314.12Z"/>
  <path id="Shape_2_copy_7" data-name="Shape 2 copy 7" class="cls-9" d="M237.77,332.052l116.141-67.039a13.178,13.178,0,0,1,13.178,0L483.23,332.052a13.179,13.179,0,0,1,6.589,11.411V477.544a13.175,13.175,0,0,1-6.589,11.411L367.089,556a13.183,13.183,0,0,1-13.178,0L237.77,488.955a13.175,13.175,0,0,1-6.589-11.411V343.463A13.179,13.179,0,0,1,237.77,332.052Z"/>
  <path id="Shape_2_copy_8" data-name="Shape 2 copy 8" class="cls-10" d="M266.492,350.415l88.961-51.35a10.1,10.1,0,0,1,10.094,0l88.961,51.35a10.094,10.094,0,0,1,5.047,8.741v102.7a10.09,10.09,0,0,1-5.047,8.74L365.547,521.95a10.1,10.1,0,0,1-10.094,0L266.492,470.6a10.09,10.09,0,0,1-5.047-8.74v-102.7A10.094,10.094,0,0,1,266.492,350.415Z"/>
  <path id="Shape_2_copy_9" data-name="Shape 2 copy 9" class="cls-10" d="M292.545,367.072l64.307-37.12a7.3,7.3,0,0,1,7.3,0l64.307,37.12a7.294,7.294,0,0,1,3.648,6.318v74.24a7.293,7.293,0,0,1-3.648,6.318l-64.307,37.12a7.3,7.3,0,0,1-7.3,0l-64.307-37.12a7.293,7.293,0,0,1-3.648-6.318V373.39A7.294,7.294,0,0,1,292.545,367.072Z"/>
  <path id="Shape_2_copy_10" data-name="Shape 2 copy 10" class="cls-11" d="M316.083,382.126l42.032-24.262a4.77,4.77,0,0,1,4.77,0l42.032,24.262a4.769,4.769,0,0,1,2.385,4.13v48.526a4.768,4.768,0,0,1-2.385,4.129l-42.032,24.262a4.77,4.77,0,0,1-4.77,0l-42.032-24.262a4.768,4.768,0,0,1-2.385-4.129V386.256A4.769,4.769,0,0,1,316.083,382.126Z"/>
  <path id="Shape_2_copy_11" data-name="Shape 2 copy 11" class="cls-12" d="M337.406,395.765L359.26,383.15a2.48,2.48,0,0,1,2.48,0l21.854,12.615a2.479,2.479,0,0,1,1.239,2.147v25.229a2.479,2.479,0,0,1-1.239,2.147L361.74,437.9a2.48,2.48,0,0,1-2.48,0l-21.854-12.615a2.479,2.479,0,0,1-1.239-2.147V397.912A2.479,2.479,0,0,1,337.406,395.765Z"/>
</svg>
